# AST/ASF file generated using VICON BodyLanguage
# -----------------------------------------------
:version 1.10
:name VICON
:units
  mass 1.0
  length 0.45
  angle deg
:documentation
   .ast/.asf automatically generated from VICON data using
   VICON BodyBuilder and BodyLanguage model FoxedUp or BRILLIANT.MOD
:root
   order TX TY TZ RX RY RZ
   axis XYZ
   position 0 0 0  
   orientation 0 0 0 
:bonedata
  begin
     id 1 
     name lhipjoint
     direction 0.547975 -0.797114 0.253638 
     length 2.36201 
     axis 0 0 0  XYZ
  end
  begin
     id 2 
     name lfemur
     direction 0.34202 -0.939693 0  
     length 7.69075  
     axis 0 0 20  XYZ
    dof rx ry rz
    limits (-160.0 20.0)
           (-70.0 70.0)
           (-60.0 70.0)
  end
  begin
     id 3 
     name ltibia
     direction 0.34202 -0.939693 0   
     length 7.91399   
     axis 0 0 20   XYZ
    dof rx
    limits (-10.0 170.0)
  end
  begin
     id 4 
     name lfoot
     direction 0.0705293 -0.193778 0.978507   
     length 2.13618   
     axis -90 7.62852e-016 20   XYZ
    dof rx rz
    limits (-45.0 90.0)
           (-70.0 20.0)
  end
  begin
     id 5 
     name ltoes
     direction 1.53592e-011 -4.21925e-011 1   
     length 1.07518   
     axis -90 7.62852e-016 20   XYZ
    dof rx
    limits (-90.0 20.0)
  end
  begin
     id 6 
     name rhipjoint
     direction -0.57 -0.782963 0.249136   
     length 2.4047  
     axis 0 0 0  XYZ 
  end
  begin
     id 7 
     name rfemur
     direction -0.34202 -0.939693 0   
     length 7.51486   
     axis 0 0 -20   XYZ
    dof rx ry rz
    limits (-160.0 20.0)
           (-70.0 70.0)
           (-70.0 60.0)
  end
  begin
     id 8 
     name rtibia
     direction -0.34202 -0.939693 0   
     length 8.08317   
     axis 0 0 -20   XYZ
    dof rx
    limits (-10.0 170.0)
 end
 begin
     id 9 
     name rfoot
     direction -0.104954 -0.281256 0.953876   
     length 2.30343  
     axis -90 -7.62852e-016 -20   XYZ
    dof rx rz
    limits (-45.0 90.0)
           (-20.0 70.0)
  end
  begin
     id 10 
     name rtoes
     direction -1.53556e-011 -4.21922e-011 1   
     length 1.14803   
     axis -90 -7.62852e-016 -20   XYZ
    dof rx
    limits (-90.0 20.0)
  end
  begin
     id 11 
     name lowerback
     direction -0.0152855 0.99353 -0.11254   
     length 2.05311   
     axis 0 0 0   XYZ
    dof rx ry rz
    limits (-20.0 45.0)
           (-30.0 30.0)
           (-30.0 30.0)
  end
  begin
     id 12 
     name upperback
     direction -0.00157509 0.999443 -0.033332   
     length 2.06353   
     axis 0 0 0   XYZ
    dof rx ry rz
    limits (-20.0 45.0)
           (-30.0 30.0)
           (-30.0 30.0)
  end
  begin
     id 13 
     name thorax
     direction 0.00577788 0.999804 0.0189484   
     length 2.08472   
     axis 0 0 0   XYZ
    dof rx ry rz
    limits (-20.0 45.0)
           (-30.0 30.0)
           (-30.0 30.0)
  end
  begin
     id 14 
     name lowerneck
     direction -1.09301e-005 0.994719 0.10264   
     length 1.76249   
     axis 0 0 0   XYZ
    dof rx ry rz
    limits (-20.0 45.0)
           (-30.0 30.0)
           (-30.0 30.0)
  end
  begin
     id 15 
     name upperneck
     direction 0.0495018 0.988526 -0.142706   
     length 1.77897   
     axis 0 0 0   XYZ
    dof rx ry rz
    limits (-20.0 45.0)
           (-30.0 30.0)
           (-30.0 30.0)
  end
  begin
     id 16
     name head
     direction 0.0142736 0.998114 -0.0597101  
     length 1.78934  
     axis 0 0 0   XYZ
    dof rx ry rz
    limits (-20.0 45.0)
           (-30.0 30.0)
           (-30.0 30.0)
  end
  begin
     id 17 
     name lclavicle
     direction 0.918111 0.396107 -0.0130883  
     length 3.37276  
     axis 0 0 0   XYZ
    dof ry rz
    limits (-20.0 10.0)
           (0.0 20.0)
  end
  begin
     id 18 
     name lhumerus
     direction 1 -4.48975e-011 -3.26108e-027   
     length 5.34298   
     axis 180 -30 -90   XYZ
    dof rx ry rz
    limits (-60.0 90.0)
           (-90.0 90.0)
           (-90.0 90.0)
  end
  begin
     id 19
     name lradius
     direction 1 -4.48964e-011 -8.84413e-028   
     length 3.67262   
     axis 180 -30 -90   XYZ
    dof rx
    limits (-10.0 170.0)
  end
  begin
     id 20
     name lwrist
     direction 1 -4.48991e-011 -1.24264e-027   
     length 1.83631   
     axis -2.17013e-015 90 90   XYZ
    dof ry
    limits (-180.0 0.0)
 end
  begin
     id 21 
     name lhand
     direction 1 -4.48855e-011 -2.48528e-027   
     length 0.599298   
     axis 1.58582e-015 90 90   XYZ
    dof rx rz
    limits (-90.0 90.0)
           (-45.0 45.0)
  end
  begin
     id 22 
     name lfingers
     direction 1 -4.48811e-011 -4.97056e-027   
     length 0.48317   
     axis 3.17164e-015 90 90   XYZ
    dof rx
    limits (0.0 90.0)
  end
  begin
     id 23
     name lthumb
     direction 0.707107 -6.34882e-011 0.707107   
     length 0.693738   
     axis -90 45 2.85299e-015   XYZ
    dof rx rz
    limits (-45.0 45.0)
           (-45.0 45.0)
  end
  begin
     id 24 
     name rclavicle
     direction -0.920511 0.384752 -0.0680135   
     length 3.43787  
     axis 0 0 0   XYZ 
    dof ry rz
    limits (-10.0 20.0)
           (-20.0 0.0)
  end
  begin
     id 25 
     name rhumerus
     direction -0.999976 -0.00330524 0.00603274  
     length 5.5498   
     axis 180 30 90   XYZ
    dof rx ry rz
    limits (-90.0 60.0)
           (-90.0 90.0)
           (-90.0 90.0)
  end
  begin
     id 26 
     name rradius
     direction -1 -4.48967e-011 8.62438e-027   
     length 3.69401   
     axis 180 30 90   XYZ
    dof rx
    limits (-10.0 170.0)
  end
  begin
     id 27 
     name rwrist
     direction -1 -4.4897e-011 9.54866e-027   
     length 1.84701   
     axis -7.69462e-015 -90 -90   XYZ
    dof ry
    limits (-180.0 0.0)
  end
  begin
     id 28
     name rhand
     direction -1 -4.48982e-011 1.90973e-026   
     length 0.638113   
     axis -1.21857e-014 -90 -90   XYZ
    dof rx rz
    limits (-90.0 90.0)
           (-45.0 45.0)
  end
  begin
     id 29
     name rfingers
     direction -1 -4.48936e-011 3.81946e-026   
     length 0.514463   
     axis -2.43714e-014 -90 -90   XYZ
    dof rx
    limits (0.0 90.0)
  end
  begin
     id 30
     name rthumb
     direction -0.707107 -6.34942e-011 0.707107   
     length 0.738669   
     axis -90 -45 -2.85299e-015   XYZ
    dof rx rz
    limits (-45.0 45.0)
           (-45.0 45.0)
  end
:hierarchy
  begin
    root lhipjoint rhipjoint lowerback
    lhipjoint lfemur
    lfemur ltibia
    ltibia lfoot
    lfoot ltoes
    rhipjoint rfemur
    rfemur rtibia
    rtibia rfoot
    rfoot rtoes
    lowerback upperback
    upperback thorax
    thorax lowerneck lclavicle rclavicle
    lowerneck upperneck
    upperneck head
    lclavicle lhumerus
    lhumerus lradius
    lradius lwrist
    lwrist lhand lthumb
    lhand lfingers
    rclavicle rhumerus
    rhumerus rradius
    rradius rwrist
    rwrist rhand rthumb
    rhand rfingers
  end

#!OML:ASF F:\twosubjects\two\Thursday\Session 1\Rory.ASF
:FULLY-SPECIFIED
:DEGREES
163
root 7.50502 10.6565 7.54943 165.648 -4.26401 -179.198
lowerback 28.2908 1.07501 -1.33236
upperback 10.065 -1.76603 -2.34358
thorax -4.40378 -1.95083 -1.17566
lowerneck -10.0445 -3.30884 -2.7252
upperneck 6.0489 -4.36779 3.55188
head 3.95181 -2.06551 1.38747
rclavicle -1.86858e-014 -3.97569e-015
rhumerus 13.9574 12.5374 -85.3971
rradius 70.4023
rwrist 28.5662
rhand -18.5818 26.3073
rfingers 7.12502
rthumb 7.70878 -3.53224
lclavicle -1.86858e-014 -3.97569e-015
lhumerus 16.692 -24.8222 69.8519
lradius 73.4492
lwrist -25.6976
lhand -21.6827 24.0868
lfingers 7.12502
lthumb 4.71514 54.0144
rfemur -61.3324 -17.7822 -7.34487
rtibia 109.164
rfoot -20.7821 -1.43437
rtoes -27.0317
lfemur -56.1078 21.9068 9.00132
ltibia 113.594
lfoot -26.7356 -3.33906
ltoes -19.797
164
root 7.50417 10.6537 7.5682 165.542 -4.36522 -179.65
lowerback 28.4078 1.15084 -1.75543
upperback 10.0286 -1.79521 -2.39541
thorax -4.49506 -1.97215 -0.977004
lowerneck -10.224 -3.31855 -2.99544
upperneck 6.26123 -4.35167 3.63249
head 4.07461 -2.05729 1.46304
rclavicle 3.4191e-014 3.26007e-014
rhumerus 13.8914 12.5092 -85.4154
rradius 70.5052
rwrist 28.5858
rhand -18.0109 26.4634
rfingers 7.12502
rthumb 8.25986 -3.35514
lclavicle 3.4191e-014 3.26007e-014
lhumerus 16.5541 -24.7286 70.1022
lradius 73.4802
lwrist -25.5392
lhand -21.1916 24.1052
lfingers 7.12502
lthumb 5.18936 54.0217
rfemur -61.2727 -17.985 -7.9196
rtibia 109.132
rfoot -20.7388 -1.22189
rtoes -26.0871
lfemur -56.0117 21.6355 8.40816
ltibia 113.579
lfoot -26.6913 -3.03958
ltoes -19.722
165
root 7.50335 10.6573 7.58049 165.403 -4.42474 -179.712
lowerback 28.3837 1.11068 -1.86093
upperback 10.0651 -1.87664 -2.32668
thorax -4.43954 -2.01878 -0.816965
lowerneck -10.6661 -3.33177 -3.16746
upperneck 7.01569 -4.35505 3.69603
head 3.98193 -2.04114 1.3568
rclavicle -6.36111e-015 3.97569e-015
rhumerus 13.8667 12.7231 -85.4596
rradius 70.578
rwrist 28.6183
rhand -17.8752 26.2243
rfingers 7.12502
rthumb 8.39082 -3.58906
lclavicle -6.36111e-015 3.97569e-015
lhumerus 16.4848 -24.5438 70.3771
lradius 73.346
lwrist -25.0066
lhand -21.2798 24.413
lfingers 7.12502
lthumb 5.10419 54.3315
rfemur -61.0967 -18.0046 -8.04678
rtibia 109.067
rfoot -20.741 -1.1769
rtoes -24.8895
lfemur -55.8943 21.3982 8.30142
ltibia 113.539
lfoot -26.6659 -2.9347
ltoes -19.0117
166
root 7.50326 10.659 7.59432 165.128 -4.41564 -179.529
lowerback 28.381 1.05526 -1.63861
upperback 10.1717 -1.91136 -2.28282
thorax -4.32196 -2.04659 -0.88816
lowerneck -11.0207 -3.30806 -2.93237
upperneck 7.3545 -4.33151 3.42864
head 4.13143 -2.03128 1.23133
rclavicle -7.95139e-016 -1.35174e-014
rhumerus 13.895 12.7751 -85.6368
rradius 70.4319
rwrist 28.7862
rhand -18.6513 26.4996
rfingers 7.12502
rthumb 7.64169 -3.34233
lclavicle -7.95139e-016 -1.35174e-014
lhumerus 16.216 -24.2464 70.9335
lradius 73.0843
lwrist -25.0942
lhand -22.3187 23.9114
lfingers 7.12502
lthumb 4.10098 53.8517
rfemur -60.8164 -17.9381 -7.87909
rtibia 108.995
rfoot -20.7182 -1.16589
rtoes -24.7809
lfemur -55.6784 21.2074 8.55466
ltibia 113.485
lfoot -26.6938 -3.00608
ltoes -18.6341
167
root 7.50469 10.6533 7.60924 164.801 -4.31965 -179.212
lowerback 28.3801 0.981197 -1.3487
upperback 10.3737 -1.97591 -2.1679
thorax -4.09769 -2.10227 -0.913518
lowerneck -11.3069 -3.22883 -2.81933
upperneck 7.27192 -4.20685 3.18026
head 4.14075 -1.97743 1.14237
rclavicle 7.15625e-015 1.90833e-014
rhumerus 14.3378 12.9502 -85.707
rradius 70.1013
rwrist 28.8579
rhand -19.1989 27.178
rfingers 7.12502
rthumb 7.11312 -2.68242
lclavicle 7.15625e-015 1.90833e-014
lhumerus 15.5674 -23.0158 72.2529
lradius 72.8483
lwrist -26.5012
lhand -22.9442 22.3794
lfingers 7.12502
lthumb 3.497 52.3304
rfemur -60.5803 -17.7263 -7.5316
rtibia 108.976
rfoot -20.7062 -1.21675
rtoes -24.6656
lfemur -55.4294 21.1929 9.06859
ltibia 113.479
lfoot -26.6977 -3.21231
ltoes -18.1649
168
root 7.50938 10.647 7.62138 164.443 -4.20767 -179.006
lowerback 28.5428 0.926569 -1.24925
upperback 10.5338 -2.0761 -2.03866
thorax -3.99278 -2.17957 -0.797587
lowerneck -11.4896 -3.19945 -3.11997
upperneck 7.09002 -4.12532 3.31952
head 4.12147 -1.93712 1.23771
rclavicle -2.46493e-014 -4.05521e-014
rhumerus 14.6328 13.2181 -85.7655
rradius 69.9984
rwrist 28.9385
rhand -19.2123 27.723
rfingers 7.12502
rthumb 7.10024 -2.13793
lclavicle -2.46493e-014 -4.05521e-014
lhumerus 16.0798 -23.3226 71.2386
lradius 72.583
lwrist -25.7388
lhand -23.3639 23.3501
lfingers 7.12502
lthumb 3.09167 53.3075
rfemur -60.3074 -17.4175 -7.33198
rtibia 108.995
rfoot -20.7588 -1.23909
rtoes -24.5659
lfemur -55.0008 21.1398 9.53155
ltibia 113.473
lfoot -26.8109 -3.38003
ltoes -17.2632
169
root 7.51368 10.6398 7.63262 164.149 -4.22073 -179.146
lowerback 28.7213 0.979505 -1.3796
upperback 10.5837 -2.08088 -2.04575
thorax -4.01776 -2.19841 -0.725256
lowerneck -11.6111 -3.23117 -3.17299
upperneck 7.24902 -4.15925 3.315
head 4.19213 -1.95337 1.23962
rclavicle -2.5842e-014 -2.38542e-014
rhumerus 14.5108 13.0595 -86.0268
rradius 70.0638
rwrist 29.0684
rhand -18.9184 28.155
rfingers 7.12502
rthumb 7.38394 -1.69614
lclavicle -2.5842e-014 -2.38542e-014
lhumerus 16.0109 -23.6099 70.9259
lradius 72.7295
lwrist -25.4426
lhand -23.2772 24.2205
lfingers 7.12502
lthumb 3.17537 54.1766
rfemur -60.0747 -17.3218 -7.58322
rtibia 109.023
rfoot -20.7763 -1.14068
rtoes -24.4524
lfemur -54.6536 20.9381 9.49255
ltibia 113.464
lfoot -26.8905 -3.33988
ltoes -15.5894
170
root 7.51605 10.6351 7.64859 163.966 -4.33741 -179.467
lowerback 28.9122 1.05548 -1.5925
upperback 10.5131 -2.04944 -2.13225
thorax -4.18434 -2.18211 -0.700378
lowerneck -11.7886 -3.2513 -3.02478
upperneck 7.7094 -4.18857 3.05693
head 4.35467 -1.97385 1.12882
rclavicle 1.66979e-014 -2.38542e-015
rhumerus 14.2427 12.7836 -86.3577
rradius 69.9705
rwrist 29.1341
rhand -18.7294 28.1012
rfingers 7.12502
rthumb 7.56638 -1.7435
lclavicle 1.66979e-014 -2.38542e-015
lhumerus 15.8657 -23.8229 71.1091
lradius 72.8462
lwrist -25.5547
lhand -22.6036 24.459
lfingers 7.12502
lthumb 3.82593 54.4044
rfemur -59.9576 -17.3769 -8.02675
rtibia 109.014
rfoot -20.6497 -1.05275
rtoes -24.3731
lfemur -54.537 20.6866 9.08119
ltibia 113.419
lfoot -26.8585 -3.48655
ltoes -12.8217
171
root 7.5144 10.6368 7.66215 163.864 -4.41007 -179.564
lowerback 29.0494 1.01215 -1.44588
upperback 10.3212 -2.03544 -2.30201
thorax -4.47197 -2.14571 -0.966753
lowerneck -11.7046 -3.22857 -2.76413
upperneck 8.14039 -4.20461 2.96164
head 4.46667 -1.97881 1.05474
rclavicle -8.74653e-015 2.14687e-014
rhumerus 13.6991 12.5645 -86.7346
rradius 69.9195
rwrist 29.2838
rhand -18.9815 27.5801
rfingers 7.12502
rthumb 7.323 -2.27315
lclavicle -8.74653e-015 2.14687e-014
lhumerus 15.594 -24.1544 71.2292
lradius 72.7958
lwrist -25.4948
lhand -22.6059 24.5646
lfingers 7.12502
lthumb 3.82368 54.5101
rfemur -59.8117 -17.5676 -8.16935
rtibia 108.921
rfoot -20.6222 -0.963006
rtoes -24.5156
lfemur -54.4945 20.5188 8.88768
ltibia 113.362
lfoot -26.908 -3.94566
ltoes -10.6438
